<svg width="24" height="24" fill="none" xmlns="http://www.w3.org/2000/svg"><path d="M13.392.922l7.992 4.614a2.4 2.4 0 011.2 2.078v9.23a2.4 2.4 0 01-1.2 2.078l-7.992 4.614a2.4 2.4 0 01-2.4 0L3 18.922a2.4 2.4 0 01-1.2-2.079V7.614A2.4 2.4 0 013 5.536L10.992.922a2.4 2.4 0 012.4 0z" fill="#fff" fill-opacity=".24"/><path fill-rule="evenodd" clip-rule="evenodd" d="M14.711 16.079c-.687.248-1.325.163-1.627.123l-.024-.003a10.19 10.19 0 01-.644-.117l-.43 1.6-.985-.263.422-1.575-.75-.2-.422 1.574-.985-.264.422-1.575-1.938-.52.52-1.129.589.159c.198.053.285.056.39 0 .103-.056.153-.17.18-.267l1.091-4.077c.07-.255.067-.33-.015-.492-.083-.163-.354-.255-.51-.296l-.57-.153.275-1.022 1.938.519.423-1.58.985.264-.423 1.58.75.2.424-1.579.985.264-.428 1.599c.722.242 1.231.528 1.614 1.01.495.62.25 1.403.186 1.588-.065.185-.245.527-.473.717-.229.19-.697.317-.697.317s.451.23.72.573c.268.343.397.856.208 1.506-.189.65-.496 1.263-1.2 1.519zm-2.045-3.42a11.89 11.89 0 00-1.113-.298l-.567 2.113s.65.189 1.097.274c.445.085.926.095 1.185.031.258-.064.582-.185.712-.668.13-.483-.138-.772-.298-.913-.16-.142-.536-.376-1.016-.539zm1.053-1.035c-.317.078-.721.058-1.084-.024-.363-.083-.82-.22-.82-.22l.51-1.902s.32.057.628.144c.307.087.576.17.948.402.372.233.53.602.442.963-.087.361-.307.559-.624.637z" fill="#fff"/></svg>