<svg width="24" height="24" fill="none" xmlns="http://www.w3.org/2000/svg"><path d="M13.392.922l7.992 4.614a2.4 2.4 0 011.2 2.078v9.23a2.4 2.4 0 01-1.2 2.078l-7.992 4.614a2.4 2.4 0 01-2.4 0L3 18.922a2.4 2.4 0 01-1.2-2.079V7.614A2.4 2.4 0 013 5.536L10.992.922a2.4 2.4 0 012.4 0z" fill="#fff" fill-opacity=".24"/><g clip-path="url(#clip0_403_3023)" fill="#fff"><path d="M17.266 14.242c0 .279-.16.47-.58.713l-4.044 2.348c-.253.145-.444.212-.662.212-.212 0-.408-.067-.657-.212L7.28 14.955c-.418-.243-.579-.434-.579-.713 0-.188.07-.335.238-.483l4.784 2.779a.589.589 0 00.258.077.59.59 0 00.264-.077l4.784-2.78c.168.149.238.296.238.484z"/><path d="M17.266 11.857c0 .284-.16.47-.58.714l-4.044 2.353c-.253.144-.444.212-.662.212-.212 0-.408-.068-.657-.212L7.28 12.57c-.418-.243-.579-.43-.579-.714 0-.188.07-.333.24-.482l4.782 2.778a.59.59 0 00.258.078.591.591 0 00.264-.078l4.782-2.778c.17.149.24.294.24.482z"/><path d="M7.28 10.089l4.043 2.348c.249.144.445.212.657.212.217 0 .409-.068.662-.212l4.044-2.348c.42-.243.58-.435.58-.72 0-.279-.16-.47-.58-.713l-4.044-2.348c-.253-.145-.444-.212-.662-.212-.212 0-.408.067-.657.212L7.28 8.656c-.418.243-.579.434-.579.714 0 .284.16.476.58.719z"/></g><defs><clipPath id="clip0_403_3023"><path fill="#fff" transform="translate(5.5 5)" d="M0 0h13.156v13.441H0z"/></clipPath></defs></svg>