<svg width="24" height="24" fill="none" xmlns="http://www.w3.org/2000/svg"><path d="M13.392.922l7.992 4.614a2.4 2.4 0 011.2 2.078v9.23a2.4 2.4 0 01-1.2 2.078l-7.992 4.614a2.4 2.4 0 01-2.4 0L3 18.922a2.4 2.4 0 01-1.2-2.079V7.614A2.4 2.4 0 013 5.536L10.992.922a2.4 2.4 0 012.4 0z" fill="#fff" fill-opacity=".24"/><g clip-path="url(#clip0_403_3007)"><path d="M6.079 11.468c.175.175.41.155.579-.01l.479-.474.738-.783v5.45c0 1.032.53 1.546 1.567 1.546h4.063c.284 0 .449-.144.444-.399-.005-.26-.16-.404-.444-.404H9.457c-.499 0-.778-.265-.778-.784v-5.42l.744.794.479.474c.17.165.409.185.579.01.17-.165.16-.409-.01-.579L8.788 9.212c-.325-.319-.689-.319-1.013 0L6.094 10.89c-.175.17-.18.415-.015.58zm4.247-3.059c.005.255.16.404.444.404h4.052c.5 0 .774.265.774.784v5.42l-.744-.799-.479-.47c-.17-.164-.404-.184-.579-.014-.17.17-.16.414.01.584l1.682 1.672c.33.324.689.324 1.018 0l1.677-1.672a.399.399 0 00.015-.584c-.17-.17-.41-.155-.579.015l-.48.469-.738.789v-5.45c0-1.033-.524-1.547-1.567-1.547H10.77c-.284 0-.45.144-.444.399z" fill="#fff"/></g><defs><clipPath id="clip0_403_3007"><path fill="#fff" transform="translate(5.959 8)" d="M0 0h12.541v9.198H0z"/></clipPath></defs></svg>